<svg width="15" height="15" viewBox="0 0 15 15" fill="none" xmlns="http://www.w3.org/2000/svg">
<path d="M3.2931 13.0429L2.54466 13.0912L3.2931 13.0429ZM11.7069 13.0429L12.4554 13.0912V13.0912L11.7069 13.0429ZM1.33334 2.58334C0.91913 2.58334 0.583344 2.91912 0.583344 3.33334C0.583344 3.74755 0.91913 4.08334 1.33334 4.08334V2.58334ZM13.6667 4.08334C14.0809 4.08334 14.4167 3.74755 14.4167 3.33334C14.4167 2.91912 14.0809 2.58334 13.6667 2.58334V4.08334ZM6.75001 6.66667C6.75001 6.25246 6.41422 5.91667 6.00001 5.91667C5.5858 5.91667 5.25001 6.25246 5.25001 6.66667H6.75001ZM5.25001 10.3333C5.25001 10.7476 5.5858 11.0833 6.00001 11.0833C6.41422 11.0833 6.75001 10.7476 6.75001 10.3333H5.25001ZM9.75001 6.66667C9.75001 6.25246 9.41422 5.91667 9.00001 5.91667C8.5858 5.91667 8.25001 6.25246 8.25001 6.66667H9.75001ZM8.25001 10.3333C8.25001 10.7476 8.5858 11.0833 9.00001 11.0833C9.41422 11.0833 9.75001 10.7476 9.75001 10.3333H8.25001ZM9.35635 3.52028C9.4596 3.92142 9.86848 4.16291 10.2696 4.05966C10.6708 3.95642 10.9123 3.54753 10.809 3.14639L9.35635 3.52028ZM2.66668 3.33334L1.91823 3.38162L2.54466 13.0912L3.2931 13.0429L4.04155 12.9946L3.41512 3.28505L2.66668 3.33334ZM3.95839 13.6667V14.4167H11.0416V13.6667V12.9167H3.95839V13.6667ZM11.7069 13.0429L12.4554 13.0912L13.0818 3.38162L12.3333 3.33334L11.5849 3.28505L10.9585 12.9946L11.7069 13.0429ZM12.3333 3.33334V2.58334H2.66668V3.33334V4.08334H12.3333V3.33334ZM1.33334 3.33334V4.08334H2.66668V3.33334V2.58334H1.33334V3.33334ZM12.3333 3.33334V4.08334H13.6667V3.33334V2.58334H12.3333V3.33334ZM11.0416 13.6667V14.4167C11.7886 14.4167 12.4073 13.8367 12.4554 13.0912L11.7069 13.0429L10.9585 12.9946C10.9613 12.9508 10.9977 12.9167 11.0416 12.9167V13.6667ZM3.2931 13.0429L2.54466 13.0912C2.59275 13.8367 3.21139 14.4167 3.95839 14.4167V13.6667V12.9167C4.00233 12.9167 4.03872 12.9508 4.04155 12.9946L3.2931 13.0429ZM6.00001 6.66667H5.25001V10.3333H6.00001H6.75001V6.66667H6.00001ZM9.00001 6.66667H8.25001V10.3333H9.00001H9.75001V6.66667H9.00001ZM7.50002 1.33334V2.08334C8.39209 2.08334 9.14354 2.69345 9.35635 3.52028L10.0827 3.33334L10.809 3.14639C10.4298 1.67292 9.09308 0.583336 7.50002 0.583336V1.33334ZM4.91737 3.33334L5.6437 3.52028C5.85651 2.69345 6.60796 2.08334 7.50002 2.08334V1.33334V0.583336C5.90697 0.583336 4.57029 1.67292 4.19104 3.14639L4.91737 3.33334Z" fill="#EF494F"/>
</svg>
