<svg width="4" height="14" viewBox="0 0 4 14" fill="none" xmlns="http://www.w3.org/2000/svg">
<path d="M2.00001 2.16667C2.3682 2.16667 2.66668 1.86819 2.66668 1.5C2.66668 1.13181 2.3682 0.833336 2.00001 0.833336C1.63182 0.833336 1.33334 1.13181 1.33334 1.5C1.33334 1.86819 1.63182 2.16667 2.00001 2.16667Z" fill="#9DA4B2"/>
<path d="M2.00001 7.66667C2.3682 7.66667 2.66668 7.36819 2.66668 7C2.66668 6.63181 2.3682 6.33334 2.00001 6.33334C1.63182 6.33334 1.33334 6.63181 1.33334 7C1.33334 7.36819 1.63182 7.66667 2.00001 7.66667Z" fill="#9DA4B2"/>
<path d="M2.00001 13.1667C2.3682 13.1667 2.66668 12.8682 2.66668 12.5C2.66668 12.1318 2.3682 11.8333 2.00001 11.8333C1.63182 11.8333 1.33334 12.1318 1.33334 12.5C1.33334 12.8682 1.63182 13.1667 2.00001 13.1667Z" fill="#9DA4B2"/>
<path d="M2.00001 2.16667C2.3682 2.16667 2.66668 1.86819 2.66668 1.5C2.66668 1.13181 2.3682 0.833336 2.00001 0.833336C1.63182 0.833336 1.33334 1.13181 1.33334 1.5C1.33334 1.86819 1.63182 2.16667 2.00001 2.16667Z" stroke="#9DA4B2" stroke-width="1.5" stroke-linecap="round" stroke-linejoin="round"/>
<path d="M2.00001 7.66667C2.3682 7.66667 2.66668 7.36819 2.66668 7C2.66668 6.63181 2.3682 6.33334 2.00001 6.33334C1.63182 6.33334 1.33334 6.63181 1.33334 7C1.33334 7.36819 1.63182 7.66667 2.00001 7.66667Z" stroke="#9DA4B2" stroke-width="1.5" stroke-linecap="round" stroke-linejoin="round"/>
<path d="M2.00001 13.1667C2.3682 13.1667 2.66668 12.8682 2.66668 12.5C2.66668 12.1318 2.3682 11.8333 2.00001 11.8333C1.63182 11.8333 1.33334 12.1318 1.33334 12.5C1.33334 12.8682 1.63182 13.1667 2.00001 13.1667Z" stroke="#9DA4B2" stroke-width="1.5" stroke-linecap="round" stroke-linejoin="round"/>
</svg>
